<?xml version="1.0" encoding="UTF-8"?>
<svg width="32" height="32" version="1.1" viewBox="0 0 32 32" xmlns="http://www.w3.org/2000/svg">
  <defs>
    <filter id="fuzzy">
      <feTurbulence type="fractalNoise" baseFrequency="0.8" numOctaves="3" result="noise"/>
      <feDisplacementMap in="SourceGraphic" in2="noise" scale="0.5"/>
    </filter>
    <filter id="shadow">
      <feGaussianBlur stdDeviation="0.5"/>
    </filter>
  </defs>

  <!-- Main body -->
  <path d="M8 18 Q8 26 16 26 Q24 26 24 18 L24 14 Q24 8 16 8 Q8 8 8 14 Z" 
        fill="white" filter="url(#fuzzy)"/>

  <!-- Space helmet -->
  <path d="M6 16 Q6 26 16 26 Q26 26 26 16 L26 14 Q26 6 16 6 Q6 6 6 14 Z" 
        fill="none" stroke="black" stroke-width="1.5"/>
  
  <!-- Helmet rim -->
  <path d="M7 14 Q7 8 16 8 Q25 8 25 14" 
        fill="none" stroke="black" stroke-width="2"/>

  <!-- Helmet bolts -->
  <circle cx="7" cy="15" r="1" fill="black"/>
  <circle cx="25" cy="15" r="1" fill="black"/>
  <circle cx="7" cy="19" r="1" fill="black"/>
  <circle cx="25" cy="19" r="1" fill="black"/>

  <!-- Ears -->
  <path d="M11 8 Q11 4 9 2 Q11 4 13 8" fill="black" filter="url(#fuzzy)"/>
  <path d="M19 8 Q19 4 21 2 Q19 4 17 8" fill="black" filter="url(#fuzzy)"/>

  <!-- Face -->
  <circle cx="13" cy="16" r="1.5" fill="black"/>
  <circle cx="19" cy="16" r="1.5" fill="black"/>
  <path d="M15 19 Q16 20 17 19" stroke="black" stroke-width="1.5" fill="none"/>
  
  <!-- Nose -->
  <path d="M15.5 17.5 Q16 18 16.5 17.5" fill="black"/>

  <!-- Helmet reflection -->
  <path d="M22 10 Q24 14 22 18" fill="none" stroke="white" stroke-width="1" opacity="0.7"/>
</svg>
